<svg version="1" xmlns="http://www.w3.org/2000/svg" width="813.333" height="813.333" viewBox="0 0 610.000000 610.000000"><path d="M308.9 48.4c-.2.2-2 .6-3.9.9-11.6 1.6-26.8 10-35.5 19.6-3.6 3.9-11.4 16.1-11.4 17.8-.1.7-.5 1.3-1.1 1.3-.5 0-1 .4-1 .9 0 .4-6.1 11.4-13.6 24.2-7.5 12.9-15 25.9-16.6 28.9-1.7 3-4.9 8.4-7 11.9-2.1 3.5-3.7 6.5-3.6 6.6.2.2 3 1.7 6.3 3.4 12.3 6.5 19.8 11.4 29.3 19.3 3.1 2.6 5.8 4.5 6.2 4.3.3-.2 1.4-2.1 2.5-4.2s2.2-4 2.5-4.3c.5-.4 10.5-17.7 22-37.9.8-1.4 3.1-5.3 5-8.6s4.1-7.1 4.8-8.5c.8-1.4 2.2-3.8 3.1-5.3.9-1.6 2.1-3.6 2.6-4.5.6-.9 2.5-4.2 4.3-7.3 5.7-9.9-2.9-9.1 102.6-9.2 52.8 0 91.9.4 91.7.9-.2.5-.8 2-1.3 3.4-.5 1.3-1.2 2.7-1.6 3-.4.3-1.5 2.1-2.6 4-3.4 6.5-8.9 16.5-11.8 21.3-1.5 2.6-2.8 4.9-2.8 5.1 0 .4-10.3 19-12 21.6-.5.8-2.1 3.7-3.5 6.4-1.5 2.7-7.8 14-14 25-6.2 11.1-13.2 23.7-15.5 28.1-2.4 4.4-5.4 9.7-6.7 11.7-1.3 2.1-2.3 3.9-2.3 4.2 0 .2-4.8 8.8-10.6 19.2-5.8 10.4-12.1 21.7-14 25.2-1.9 3.4-4.4 7.9-5.6 10-1.1 2-6.4 11.6-11.8 21.2-5.3 9.6-11 19.7-12.5 22.5-1.5 2.7-8.1 14.4-14.5 26-6.4 11.5-13 23.2-14.5 26-1.6 2.7-4.2 7.5-5.8 10.5-1.6 3-4.9 8.9-7.2 13-5.3 9.5-8.8 15.8-13.3 24-1.9 3.6-3.8 6.9-4.2 7.5-.8 1.1-3 5.1-13.3 24-3.9 7.1-7.5 13.1-7.9 13.3-.4.2-.8.8-.8 1.3s-2 4.6-4.4 9l-4.4 8.1-3-5.4c-1.7-2.9-4.3-7.8-5.8-10.8-1.5-3-3.4-6.3-4.2-7.3-.9-.9-1.2-1.7-.8-1.7.3 0-.4-1.7-1.7-3.7-1.3-2.1-4.6-8.1-7.4-13.3-8.9-16.9-13.5-25.5-14.8-27.5-1.1-1.9-.5-2.9 6.9-10.6 9.6-10 16-18.9 22.8-31.6 4.2-7.8 10-21.9 11.3-27.3.2-.8.4-1.5.5-1.5.1 0 .3-1.1.6-2.5.2-1.4.8-4.5 1.4-7 1.6-7.2 1.9-10 2.6-19.5.3-4.9.8-9.3 1.1-9.7.2-.5.1-.8-.4-.8-.4 0-.9-3.7-1-8.2-.1-7.2-.7-11.7-2.9-23.2-.3-1.6-.9-3.7-1.5-4.8-.5-1-.7-1.8-.4-1.8.3 0-.1-1.6-.9-3.5-.9-2-1.5-3.8-1.5-4 .1-3.5-13.8-31.7-17-34.5-.4-.3-1.8-2.3-3.3-4.5-8.3-12.5-25.6-28.3-41.5-37.9-6.7-4-22.3-11.5-25.1-12.1-.9-.2-3-.8-4.7-1.5-3.7-1.4-17.3-4.7-24-5.7-5.9-.9-32.8-1-40-.2-8.9 1.1-26.7 6.1-36 10.1-4.9 2.2-9.8 4.2-10.7 4.5-1 .3-1.8.9-1.8 1.4 0 .5-.4.9-1 .9-3.3 0-24.2 15.4-32.7 24.1C35 219.6 29 226.4 29 227.2c0 .4-.6 1.3-1.3 2-4 4.1-13.5 21.5-18 32.8-3.1 7.6-7.7 24.6-7 25.4.3.2.1 1.1-.3 1.8-1.3 2-1.5 4.3-1.8 21.3-.5 21.7 2.3 38.8 9.4 56.5 2.7 7 10.2 21.4 11.2 21.8.4.2.8.8.8 1.3 0 .8 4.7 7.7 9 13.3 4.1 5.3 19.2 20.1 25.2 24.7C64 434 71.7 439 73 439c.4 0 1 .3 1.2.7.5 1.3 15.8 8.3 22.3 10.2 2.2.7 4.9 1.6 6 2.1 3 1.2 15.6 3.9 22.2 4.8 11.5 1.4 36.1.8 46.3-1.3 5.7-1.1 6.6-1.4 9.3-2.4 1.5-.6 2.7-.9 2.7-.6 0 .2 3.2-.7 7.2-2.1 4-1.3 7.5-2.1 7.9-1.7.4.5 2.2 3.5 3.9 6.8 6.4 11.9 11.3 21.1 14 26 1.5 2.7 4.9 9 7.5 14 2.6 4.9 7.6 14.2 11 20.5 11 20.4 14.8 27.4 16.2 30.1 2 4 9.5 10.5 15 13 7.4 3.5 19.9 3.3 27.4-.4 3.1-1.5 7.2-4.5 9.2-6.6 4.1-4.5 6.7-8.7 16.3-27.1 1.6-3 3.2-5.7 3.5-6 .9-.8 11.9-21.2 11.9-22.1 0-.5.5-.9 1-.9.6 0 1-.4 1-1 0-.5 4.1-8.2 9-17.1 5-8.9 9-16.5 9-17s.5-.9 1-.9c.6 0 1-.5 1-1 0-.9 16.3-30.7 19.1-35 .5-.8 1.7-3.1 2.5-5 .9-1.9 2.2-4.2 2.9-5 .7-.8 2.9-4.7 5-8.5 7.3-14.1 9-17 9.6-17.5.3-.3.9-1.5 1.3-2.7.4-1.3 1.3-2.9 1.9-3.5.7-.7 2-2.9 2.9-4.8 1-1.9 3.3-6.2 5.2-9.5 1.9-3.3 4.2-7.4 5-9 .8-1.7 2.2-4.1 3-5.5 2.8-4.6 18.6-33.2 18.6-33.7 0-.3.8-1.7 1.8-3.1 1.1-1.5 3.8-6.3 6.2-10.7 2.3-4.4 7.4-13.6 11.3-20.5 3.8-6.9 8.3-15 10-18 1.6-3 4.8-8.9 7.2-13 2.3-4.1 5.3-9.5 6.7-12 19.4-35.2 41.4-74.6 41.8-75 .3-.3 1-1.6 1.6-3 .6-1.4 5.9-11 11.8-21.3 5.8-10.4 10.6-19.3 10.6-19.8s.5-.9 1-.9c.6 0 1-.5 1-1.1 0-1.6 14.4-26.9 20.3-35.9 11.4-17.1 24.3-30.5 33.2-34.7l5-2.3H455.9c-80.6 0-146.8.2-147 .4zM164.5 222.3c3.3.9 7.8 2.1 10 2.7 5.2 1.6 21.5 9.9 21.5 11.1 0 .5.6.9 1.3.9 1.5 0 9 6.3 15 12.5 4.6 4.7 12.7 15.8 12.7 17.3 0 .6.4 1.2.8 1.4 1.4.6 7.1 14.5 9.3 23 1.7 6.4 2.2 11.3 2.3 21.3.1 15.1-.8 21.8-4.1 30.5-.3.8-.7 2.2-.9 3-.9 4.4-9.8 20.3-15.1 26.8l-1.9 2.3-3.3-6.3c-1.9-3.5-5.2-9.7-7.4-13.8-2.2-4.1-5.2-9.8-6.7-12.5-1.5-2.8-5.1-9.4-7.9-14.8l-5.3-9.7h-56.9l2.4 4.2c2.7 4.7 6.8 12.2 12.9 23.8 7.1 13.3 12 22.4 14.8 27.5 1.5 2.7 4.7 8.6 7 13 2.4 4.4 5.3 9.9 6.6 12.3 1.6 3 1.9 4.4 1.1 4.7-1.1.4-7.1 2-12.2 3.2-3.5.9-27.9 1-31 .2-1.6-.4-4.6-1-6.5-1.3-10-1.5-25-8.7-37.5-18.1-16.6-12.5-30.4-35.8-34.2-57.9-1-6-1.1-25.2-.1-30.6 1.9-11.1 7.8-27.9 10-28.8.4-.2.8-.8.8-1.4 0-2 9-14.4 14.4-20 5.5-5.6 16.8-14.8 18.1-14.8.4 0 2-.9 3.6-2.1 1.6-1.1 3.5-2.2 4.2-2.3 1.2-.3 7.3-2.8 11.2-4.6 1.1-.5 6.3-1.8 11.5-2.9 11.2-2.3 29.9-2.2 39.5.2z"/></svg>