<svg xmlns="http://www.w3.org/2000/svg" viewBox="0 0 895.5 895.5"><defs><style>.cls-1{fill:none;stroke:#fff;stroke-linecap:round;stroke-linejoin:round;stroke-width:2.5px;}</style></defs><g id="Layer_2" data-name="Layer 2"><g id="Layer_2-2" data-name="Layer 2"><circle class="cls-1" cx="447.75" cy="447.75" r="446.5"/><path class="cls-1" d="M22.15,312.38s-10.9,80.87,18.1,78.87,51-28,57-36,0-13-3-22c4-9-2-9-2-9s-7,2-10-3,5-39,12-42c-7,51,17,53,37,65,7,49,12,39,20,33-13,52,2,114,10,109s16-35,19-50c8-9,52-37,75-39,20,41,13,44,12,51s9,6,19,0c9,38,4,47,0,58l4,5a56.59,56.59,0,0,1,12,28c2,14,15,21,15,21s16,12,11,4-3-15-4-23-5-6-20-24-4-33,1-43c9,5,26,27,32,38,10-2,32-18,31-39s-24-29-22-40,25-20,27-15,5,12,0,13-7,8-7,8,2,8,10,6,8-14,5-22c36-10,26-2,62-32,29-32,8-61,0-69-2-8,18-16,18-16s3-5-9-4-16-3-20-9c5-6,26-17,28-11s-1,8-1,8,11-5,19,0c-5,12,1,10,1,10s6-3,8,4,1,22,1,22a172.92,172.92,0,0,0,16-8c3-16-9-22-13-26s2-6,12-15c3-9,8-15,22-15,35-44,15-69,9-73s-14-1-21-4c5-5,14-13,23-30,15-6,29,3,35-9s19-27,20-13-3,20-5,28,9,17,23,32c9-29-3-36-7-42s1-14,12-22c5-16-3-17-9-22s14-8,14-8-5-7-21-8-22-4-46,8c-23-2-50-4-63-1s-29-4-55-10c-13-31-10-14-22-24-22,15-86,21-107,17s-17-9,1-26c6.25-5.91-81,7-116,28"/><path class="cls-1" d="M173.25,481.25s-4,18,0,25,9,0,9,0S182.25,492.25,173.25,481.25Z"/><path class="cls-1" d="M266.25,530.25s33,45,40,58,24,32,35,29c0-14-1-19-22-43s-32-32-39-40C272.25,530.25,266.25,530.25,266.25,530.25Z"/><path class="cls-1" d="M423.25,530.25s-9,11-10,15c-11,3-18,14-18,14s-13-3-15,10c-9-2-11-2-11-2s-10,5,0,21c3,5,4,14,4,14s8-2,13,0,15,0,21,6c9-2,11-2,13-9a21.78,21.78,0,0,1,8-11s-2-14,4-14h6s-12-12-11-18,13-11,13-11S433.25,542.25,423.25,530.25Z"/><path class="cls-1" d="M460.25,394.25s-3,18-7,23S442.25,396.25,460.25,394.25Z"/><path class="cls-1" d="M338.25,627.25s48,13,64,15,0-7,0-7-8,0-11-5-10-3-17-3-10,0-16-4S344.25,620.25,338.25,627.25Z"/><path class="cls-1" d="M545.25,185.25s11,24,19,30h-6s-2,9,6,17c-2,2-6,0-5,4C555.25,219.25,541.25,196.25,545.25,185.25Z"/><path class="cls-1" d="M560.25,243.25s6,10,2,13c-6,0-8,11-3,13l4-4s-10-5,8-3c4,1,3-1,4-3s5-1,7-4-1,0-2-6C576.25,249.25,570.25,253.25,560.25,243.25Z"/><path class="cls-1" d="M565.25,271.25s-4-1-5,3,6,18-10,29c-6,2-6,9-6,9s-21-1-29,13c7,2,15-5,21-6s5,5,5,5-1,6,3,4,5-5,5-9,4,2,9-1,6-5,9-8,5-23,4-32C568.25,271.25,565.25,271.25,565.25,271.25Z"/><path class="cls-1" d="M529.25,327.25c-3,1-5,1-5,3s3,6,5,4,3-4,6-4c4-2,0-6,0-6S531.25,325.25,529.25,327.25Z"/><path class="cls-1" d="M513.25,328.25s7,2,8,5-1,8-2,13-5-3-5-6,0-5-1-6-4,3-4,3S503.25,335.25,513.25,328.25Z"/><path class="cls-1" d="M488.25,510.25s12,11,6,22c-4-4-6-2-6,7-6,0-9-2-10-9s-9-7-12-4-4,9-4,9-5-17,12-16S488.25,510.25,488.25,510.25Z"/><path class="cls-1" d="M452.25,443.25s19,3,13,13-10,18-5,20,8-2,12,2,6,8,5,9-7-4-7-4-3-2-16-3c-4-6-7-10-7-17S452.25,443.25,452.25,443.25Z"/><path class="cls-1" d="M478.25,491.25s7,10,9,9,0-9,0-9S484.25,488.25,478.25,491.25Z"/><path class="cls-1" d="M443.25,499.25s-12,18-16,19C434.25,522.25,445.25,506.25,443.25,499.25Z"/><path class="cls-1" d="M462.25,495.25s-2,9,0,9,9-1,8-5S462.25,495.25,462.25,495.25Z"/><path class="cls-1" d="M475.25,500.25s-7,8-9,9,4,6,4,6,12-1,11-6S475.25,500.25,475.25,500.25Z"/><path class="cls-1" d="M450.25,484.25a18.93,18.93,0,0,1,4,6c1,3,4,1,4,1s2-5,0-6S450.25,484.25,450.25,484.25Z"/><path class="cls-1" d="M484.25,569.25s-6,12-29,5c-6,0-10,4-9,13-3,8-7,8-6,16,3,2,4,1,3,8s-3,9,0,10,7,2,7-6-1-11,0-13,4-1,4-1,0,5,1,7c3,0,4,2,4,6,4,1,6,3,9-3-2-7-5-12-10-14,4-5,8-4,12-9s-12,0-12,0,0,4-3,3-7-5-5-9,18-1,23-2S482.25,576.25,484.25,569.25Z"/><path class="cls-1" d="M476.25,654.25s21-13,24-14-17,0-24,7S476.25,654.25,476.25,654.25Z"/><path class="cls-1" d="M418.25,642.25a48.83,48.83,0,0,0,14,2h19c7,0,20-4,25-4s9-2,8-2-7-2-33,2C425.25,637.25,414.25,638.25,418.25,642.25Z"/><path class="cls-1" d="M528.25,587.25s7,4,11,8,2,8,5,10,3-1,6,0,13,5,24,7,14,14,12,15-12,4-9,8,13-4,15-4,7,8,13,7,9-5,11-7,6-10,19-6c5,6,11,14,27,13-5-11-6-4-17-17-2-5-1-5,2-8s0-5-6-5-5-1-7-5-39-16-53-16c-12,4-12,15-19,14s-10-6-10-9,3-7-2-9S535.25,580.25,528.25,587.25Z"/><path class="cls-1" d="M651.25,605.25c5,3,20,7,27-10,0-6-3-1-5,0s0,6-11,8Z"/><path class="cls-1" d="M528.25,607.25s1-5-3-6-15-2-17,0,1,2,1,2S522.25,602.25,528.25,607.25Z"/><path class="cls-1" d="M492.25,603.25c1,3,5,9,9,3C502.25,600.25,492.25,603.25,492.25,603.25Z"/><path class="cls-1" d="M510.25,562.25s-11,7-4,21l4,2c-3-6,0-7,2-7S510.25,562.25,510.25,562.25Z"/><path class="cls-1" d="M535.25,627.25a27.13,27.13,0,0,0-7,9C530.25,636.25,535.25,635.25,535.25,627.25Z"/><path class="cls-1" d="M555.25,616.25s-5,6-2,11C556.25,624.25,557.25,621.25,555.25,616.25Z"/><path class="cls-1" d="M692.25,596.25s3,14,16,18,20,5,23,7,0-11-13-15S702.25,604.25,692.25,596.25Z"/><path class="cls-1" d="M682.25,586.25s-8-7-16-9a117.8,117.8,0,0,1,13,11C680.25,589.25,683.25,592.25,682.25,586.25Z"/><path class="cls-1" d="M729.25,681.25s3,8,10,8C739.25,683.25,729.25,681.25,729.25,681.25Z"/><path class="cls-1" d="M751.25,642.25s-1,4,3,10a18.1,18.1,0,0,1,3,12S764.25,652.25,751.25,642.25Z"/><path class="cls-1" d="M805.25,628.25s-11,11-11,15S801.25,639.25,805.25,628.25Z"/><path class="cls-1" d="M404.25,727.25s7-8,20-8,9-3,18-5,13-4,20-16,32-26,38-23,6,5,9,6,7,2,9-4,8-12,12-13a37,37,0,0,0,11-5c3-2,25-3,25,0s8-2-6,20c16,2,17,13,26,13s14-8,16-26,8-19,8-19,3,0,5,20c5,0,11-1,13,24,0,4,6,5,9,7s7,8,9,12,10,9,11,13,6,11,0,21-8,15-13,20-16,10-25,26c-10,2-15,7-20,9-3,2-4,4-9-3,0,0,0,3-6,5s-22,3-25-20c-5,0-10,8-15,7-4-6-22-24-74-1-18,1-22,2-33,5s-21-2-21-4c4-5,6-7,0-15-2-9-8-18-12-22,0,0,8,1,3-6S400.25,736.25,404.25,727.25Z"/><path class="cls-1" d="M583.25,811.25s-2,7,1,7,13-2,17-10c-7,1-7,3-16,2Z"/><path class="cls-1" d="M731.25,748.25s1,11-12,21-16,14-25,20-23,15-25,17,5,2,17-7,29-22,33-25,14-11,16-15S731.25,748.25,731.25,748.25Z"/><path class="cls-1" d="M599.25,231.25s-12,9-14,13C589.25,244.25,596.25,238.25,599.25,231.25Z"/><path class="cls-1" d="M370.25,22.25s21,5,33,5,25-3,37-2,29-4,43-3,44,7,66,13,22,0,22,0a445.88,445.88,0,0,0-50-13,309,309,0,0,0-61-6C444.25,16.25,387.25,17.25,370.25,22.25Z"/><path class="cls-1" d="M577.25,36.25s16,16,21,17c-7,5-13,9-10,12s10,11,15,13,12,2,14,3-2,3-2,4,7,10,12,5,8,1,10,5,10,12,26,12c10,0,10,0,13,2s13,14,15,31c0,5,3,5,3,0s-6-28-13-36c-10-9-22-11-21-17s4-9,10-6,11,7,13,6-8-8-25-17-49-23-60-27S577.25,36.25,577.25,36.25Z"/><path class="cls-1" d="M370.25,66.25s-38-6-49,6c-2,3,0,4,5,3C337.25,71.25,343.25,69.25,370.25,66.25Z"/><path class="cls-1" d="M9,364.32s.22,33.93,3.22,39.93,15,0,18,2-22,65-21,86,3.55,56.85,6.27,67.92"/></g></g></svg>
