<svg xmlns="http://www.w3.org/2000/svg" viewBox="0 0 304.97 257"><g id="Layer_2" data-name="Layer 2"><g id="Layer_1-2" data-name="Layer 1"><g id="Logomark"><path d="M72,86a47,47,0,1,1-47,47A47,47,0,0,1,72,86m0-25a72,72,0,1,0,72,72A72,72,0,0,0,72,61Z"/><path d="M92.42,135H64.05l61.06,113.81a16.45,16.45,0,0,0,28.45,0L278.09,25S292,0,303,0H159c-12.05,0-23.06,6.34-28.45,16.39L107.42,56.31a84.84,84.84,0,0,1,20.92,13.78l23.84-41.18.2-.35.19-.36c1-1.88,3.65-3.2,6.42-3.2h90.49l-110,197.7"/></g></g></g></svg>